<?xml version="1.0" encoding="utf-8"?>
<svg width="1000px" height="1000px" viewBox="0 0 1000 1000" version="1.1" xmlns:xlink="http://www.w3.org/1999/xlink" xmlns="http://www.w3.org/2000/svg">
  <defs>
    <rect width="1000" height="1000" id="artboard_1" />
    <clipPath id="clip_1">
      <use xlink:href="#artboard_1" clip-rule="evenodd" />
    </clipPath>
  </defs>
  <g id="Artboard-6" clip-path="url(#clip_1)">
    
    <g id="Group" transform="matrix(-1 0 0 1 936.1885 146.01419)" artboard="544dce22-65c5-498c-b463-26c1a527353b">
      <path d="M842.363 254.889L111.361 254.889Q110.649 254.889 109.938 254.924Q109.227 254.959 108.519 255.029Q107.81 255.099 107.106 255.203Q106.402 255.308 105.704 255.447Q105.006 255.586 104.315 255.759Q103.625 255.932 102.943 256.138Q102.262 256.345 101.592 256.585Q100.922 256.824 100.264 257.097Q99.6062 257.369 98.9626 257.674Q98.3191 257.978 97.6913 258.314Q97.0635 258.649 96.4529 259.015Q95.8422 259.381 95.2503 259.777Q94.6584 260.172 94.0866 260.596Q93.5148 261.02 92.9645 261.472Q92.4142 261.924 91.8868 262.402Q91.3593 262.88 90.8559 263.383Q90.3525 263.886 89.8745 264.414Q89.3964 264.941 88.9448 265.492Q88.4931 266.042 88.0691 266.614Q87.645 267.186 87.2495 267.777Q86.854 268.369 86.488 268.98Q86.122 269.591 85.7865 270.218Q85.4509 270.846 85.1465 271.49Q84.8421 272.133 84.5697 272.791Q84.2973 273.449 84.0575 274.119Q83.8176 274.789 83.611 275.471Q83.4043 276.152 83.2314 276.842Q83.0584 277.533 82.9195 278.231Q82.7806 278.929 82.6762 279.633Q82.5717 280.338 82.5019 281.046Q82.4322 281.755 82.3972 282.466Q82.3623 283.177 82.3623 283.888L82.3623 424.891Q82.3623 425.602 82.3972 426.313Q82.4322 427.024 82.5019 427.733Q82.5717 428.441 82.6762 429.145Q82.7806 429.85 82.9195 430.548Q83.0584 431.246 83.2314 431.937Q83.4043 432.627 83.611 433.308Q83.8176 433.99 84.0575 434.66Q84.2973 435.33 84.5697 435.988Q84.8421 436.646 85.1465 437.289Q85.4509 437.933 85.7865 438.561Q86.122 439.188 86.488 439.799Q86.854 440.41 87.2495 441.001Q87.645 441.593 88.0691 442.165Q88.4932 442.737 88.9448 443.287Q89.3964 443.838 89.8745 444.365Q90.3525 444.892 90.8559 445.396Q91.3593 445.899 91.8868 446.377Q92.4142 446.855 92.9645 447.307Q93.5148 447.759 94.0866 448.183Q94.6584 448.607 95.2503 449.002Q95.8422 449.398 96.4529 449.764Q97.0635 450.13 97.6913 450.465Q98.3191 450.801 98.9626 451.105Q99.6062 451.41 100.264 451.682Q100.922 451.954 101.592 452.194Q102.262 452.434 102.943 452.641Q103.625 452.847 104.315 453.02Q105.006 453.193 105.704 453.332Q106.402 453.471 107.106 453.576Q107.81 453.68 108.519 453.75Q109.227 453.82 109.938 453.855Q110.649 453.889 111.361 453.889L842.363 453.889Q843.075 453.889 843.786 453.855Q844.497 453.82 845.206 453.75Q845.914 453.68 846.618 453.576Q847.323 453.471 848.021 453.332Q848.719 453.193 849.409 453.02Q850.1 452.847 850.781 452.641Q851.462 452.434 852.133 452.194Q852.803 451.954 853.461 451.682Q854.118 451.41 854.762 451.105Q855.405 450.801 856.033 450.465Q856.661 450.13 857.272 449.764Q857.882 449.398 858.474 449.002Q859.066 448.607 859.638 448.183Q860.21 447.759 860.76 447.307Q861.31 446.855 861.838 446.377Q862.365 445.899 862.869 445.396Q863.372 444.892 863.85 444.365Q864.328 443.838 864.78 443.287Q865.231 442.737 865.656 442.165Q866.08 441.593 866.475 441.001Q866.871 440.41 867.237 439.799Q867.603 439.188 867.938 438.56Q868.274 437.933 868.578 437.289Q868.882 436.646 869.155 435.988Q869.427 435.33 869.667 434.66Q869.907 433.99 870.114 433.308Q870.32 432.627 870.493 431.937Q870.666 431.246 870.805 430.548Q870.944 429.85 871.048 429.146Q871.153 428.441 871.223 427.733Q871.292 427.024 871.327 426.313Q871.362 425.602 871.362 424.891L871.362 283.888Q871.362 283.177 871.327 282.466Q871.292 281.755 871.223 281.046Q871.153 280.338 871.048 279.633Q870.944 278.929 870.805 278.231Q870.666 277.533 870.493 276.842Q870.32 276.152 870.114 275.471Q869.907 274.789 869.667 274.119Q869.427 273.449 869.155 272.791Q868.882 272.133 868.578 271.49Q868.274 270.846 867.938 270.218Q867.603 269.591 867.237 268.98Q866.871 268.369 866.475 267.778Q866.08 267.186 865.655 266.614Q865.231 266.042 864.78 265.492Q864.328 264.941 863.85 264.414Q863.372 263.886 862.869 263.383Q862.365 262.88 861.838 262.402Q861.31 261.924 860.76 261.472Q860.21 261.02 859.638 260.596Q859.066 260.172 858.474 259.777Q857.882 259.381 857.272 259.015Q856.661 258.649 856.033 258.314Q855.405 257.978 854.762 257.674Q854.118 257.369 853.461 257.097Q852.803 256.824 852.133 256.585Q851.462 256.345 850.781 256.138Q850.1 255.932 849.409 255.759Q848.719 255.586 848.021 255.447Q847.322 255.308 846.618 255.203Q845.914 255.099 845.206 255.029Q844.497 254.959 843.786 254.924Q843.075 254.889 842.363 254.889Z" id="Rectangle-3" fill="#FFFFFF" fill-rule="evenodd" stroke="none" />
      <path d="M333.755 20.5054L20.5051 333.755Q20.0017 334.258 19.5236 334.786Q19.0455 335.313 18.5939 335.864Q18.1423 336.414 17.7182 336.986Q17.2942 337.557 16.8987 338.149Q16.5032 338.741 16.1372 339.352Q15.7712 339.962 15.4356 340.59Q15.1 341.218 14.7957 341.862Q14.4913 342.505 14.2189 343.163Q13.9464 343.821 13.7066 344.491Q13.4668 345.161 13.2601 345.842Q13.0535 346.524 12.8805 347.214Q12.7075 347.905 12.5687 348.603Q12.4298 349.301 12.3253 350.005Q12.2209 350.71 12.1511 351.418Q12.0813 352.126 12.0464 352.837Q12.0114 353.548 12.0114 354.26Q12.0114 354.972 12.0464 355.683Q12.0813 356.394 12.1511 357.103Q12.2209 357.811 12.3253 358.515Q12.4298 359.22 12.5686 359.918Q12.7075 360.616 12.8805 361.306Q13.0535 361.997 13.2601 362.678Q13.4668 363.36 13.7066 364.03Q13.9464 364.7 14.2189 365.358Q14.4913 366.015 14.7956 366.659Q15.1 367.303 15.4356 367.93Q15.7712 368.558 16.1372 369.169Q16.5031 369.779 16.8986 370.371Q17.2941 370.963 17.7182 371.535Q18.1423 372.107 18.5939 372.657Q19.0455 373.207 19.5236 373.735Q20.0017 374.262 20.505 374.766L120.208 474.469Q120.712 474.973 121.239 475.451Q121.767 475.929 122.317 476.38Q122.867 476.832 123.439 477.256Q124.011 477.68 124.603 478.076Q125.195 478.471 125.805 478.837Q126.416 479.203 127.044 479.539Q127.672 479.874 128.315 480.179Q128.959 480.483 129.616 480.755Q130.274 481.028 130.944 481.268Q131.615 481.508 132.296 481.714Q132.977 481.921 133.668 482.094Q134.358 482.267 135.056 482.406Q135.755 482.545 136.459 482.649Q137.163 482.754 137.871 482.823Q138.58 482.893 139.291 482.928Q140.002 482.963 140.714 482.963Q141.426 482.963 142.137 482.928Q142.848 482.893 143.556 482.823Q144.265 482.754 144.969 482.649Q145.673 482.545 146.371 482.406Q147.069 482.267 147.76 482.094Q148.451 481.921 149.132 481.714Q149.813 481.508 150.483 481.268Q151.154 481.028 151.811 480.755Q152.469 480.483 153.113 480.179Q153.756 479.874 154.384 479.539Q155.012 479.203 155.622 478.837Q156.233 478.471 156.825 478.076Q157.417 477.68 157.989 477.256Q158.56 476.832 159.111 476.38Q159.661 475.929 160.188 475.451Q160.716 474.973 161.219 474.469L474.469 161.22Q474.973 160.716 475.451 160.189Q475.929 159.661 476.38 159.111Q476.832 158.561 477.256 157.989Q477.68 157.417 478.076 156.825Q478.471 156.233 478.837 155.623Q479.203 155.012 479.539 154.384Q479.874 153.757 480.179 153.113Q480.483 152.469 480.755 151.812Q481.028 151.154 481.268 150.484Q481.508 149.814 481.714 149.132Q481.921 148.451 482.094 147.761Q482.267 147.07 482.406 146.372Q482.545 145.674 482.649 144.969Q482.753 144.265 482.823 143.557Q482.893 142.848 482.928 142.137Q482.963 141.426 482.963 140.714Q482.963 140.002 482.928 139.291Q482.893 138.58 482.823 137.872Q482.753 137.163 482.649 136.459Q482.545 135.755 482.406 135.057Q482.267 134.359 482.094 133.668Q481.921 132.978 481.714 132.296Q481.507 131.615 481.268 130.945Q481.028 130.275 480.755 129.617Q480.483 128.959 480.179 128.316Q479.874 127.672 479.539 127.044Q479.203 126.416 478.837 125.806Q478.471 125.195 478.076 124.603Q477.68 124.011 477.256 123.44Q476.832 122.868 476.38 122.318Q475.929 121.767 475.451 121.24Q474.973 120.712 474.469 120.209L374.766 20.5054Q374.262 20.002 373.735 19.524Q373.207 19.0459 372.657 18.5943Q372.107 18.1426 371.535 17.7186Q370.963 17.2945 370.371 16.899Q369.779 16.5035 369.169 16.1375Q368.558 15.7715 367.93 15.436Q367.303 15.1004 366.659 14.796Q366.016 14.4916 365.358 14.2192Q364.7 13.9468 364.03 13.707Q363.36 13.4671 362.678 13.2605Q361.997 13.0538 361.307 12.8808Q360.616 12.7079 359.918 12.569Q359.22 12.4301 358.515 12.3257Q357.811 12.2212 357.103 12.1514Q356.394 12.0816 355.683 12.0467Q354.972 12.0118 354.26 12.0118Q353.548 12.0118 352.837 12.0467Q352.126 12.0816 351.418 12.1514Q350.71 12.2212 350.005 12.3256Q349.301 12.4301 348.603 12.569Q347.905 12.7079 347.214 12.8808Q346.524 13.0538 345.842 13.2605Q345.161 13.4671 344.491 13.7069Q343.821 13.9468 343.163 14.2192Q342.505 14.4916 341.862 14.796Q341.218 15.1004 340.59 15.4359Q339.963 15.7715 339.352 16.1375Q338.741 16.5035 338.149 16.899Q337.557 17.2945 336.986 17.7186Q336.414 18.1426 335.864 18.5942Q335.313 19.0459 334.786 19.5239Q334.258 20.002 333.755 20.5054L333.755 20.5054Z" id="Rectangle-4" fill="#FFFFFF" fill-rule="evenodd" stroke="none" />
      <path d="M474.668 547.629L202.431 275.391Q201.927 274.888 201.4 274.41Q200.872 273.932 200.322 273.48Q199.772 273.028 199.2 272.604Q198.628 272.18 198.036 271.785Q197.444 271.389 196.834 271.023Q196.223 270.657 195.595 270.322Q194.967 269.986 194.324 269.682Q193.68 269.377 193.023 269.105Q192.365 268.832 191.695 268.593Q191.024 268.353 190.343 268.146Q189.662 267.94 188.971 267.767Q188.281 267.594 187.583 267.455Q186.884 267.316 186.18 267.211Q185.476 267.107 184.768 267.037Q184.059 266.967 183.348 266.932Q182.637 266.897 181.925 266.897Q181.213 266.897 180.502 266.932Q179.791 266.967 179.083 267.037Q178.374 267.107 177.67 267.211Q176.966 267.316 176.268 267.455Q175.57 267.594 174.879 267.767Q174.188 267.94 173.507 268.146Q172.826 268.353 172.156 268.593Q171.485 268.832 170.828 269.105Q170.17 269.377 169.526 269.682Q168.883 269.986 168.255 270.322Q167.627 270.657 167.017 271.023Q166.406 271.389 165.814 271.785Q165.222 272.18 164.65 272.604Q164.079 273.028 163.528 273.48Q162.978 273.932 162.451 274.41Q161.923 274.888 161.42 275.391L61.7163 375.095Q61.213 375.598 60.7349 376.126Q60.2568 376.653 59.8052 377.203Q59.3536 377.754 58.9295 378.325Q58.5054 378.897 58.1099 379.489Q57.7144 380.081 57.3485 380.692Q56.9825 381.302 56.6469 381.93Q56.3113 382.558 56.0069 383.201Q55.7026 383.845 55.4301 384.503Q55.1577 385.16 54.9179 385.831Q54.6781 386.501 54.4714 387.182Q54.2648 387.863 54.0918 388.554Q53.9188 389.244 53.7799 389.943Q53.641 390.641 53.5366 391.345Q53.4321 392.049 53.3624 392.758Q53.2926 393.466 53.2577 394.177Q53.2227 394.888 53.2227 395.6Q53.2227 396.312 53.2577 397.023Q53.2926 397.734 53.3624 398.442Q53.4322 399.151 53.5366 399.855Q53.6411 400.559 53.7799 401.257Q53.9188 401.956 54.0918 402.646Q54.2648 403.337 54.4714 404.018Q54.6781 404.699 54.9179 405.37Q55.1577 406.04 55.4302 406.697Q55.7026 407.355 56.007 407.999Q56.3113 408.642 56.6469 409.27Q56.9825 409.898 57.3485 410.509Q57.7145 411.119 58.11 411.711Q58.5055 412.303 58.9295 412.875Q59.3536 413.447 59.8052 413.997Q60.2568 414.547 60.7349 415.075Q61.213 415.602 61.7164 416.105L333.954 688.343Q334.457 688.846 334.985 689.324Q335.512 689.802 336.063 690.254Q336.613 690.706 337.185 691.13Q337.757 691.554 338.349 691.949Q338.94 692.345 339.551 692.711Q340.162 693.077 340.789 693.412Q341.417 693.748 342.061 694.052Q342.704 694.357 343.362 694.629Q344.02 694.901 344.69 695.141Q345.36 695.381 346.042 695.588Q346.723 695.794 347.413 695.967Q348.104 696.14 348.802 696.279Q349.5 696.418 350.204 696.523Q350.909 696.627 351.617 696.697Q352.326 696.767 353.037 696.801Q353.748 696.836 354.459 696.836Q355.171 696.836 355.882 696.801Q356.593 696.767 357.302 696.697Q358.01 696.627 358.715 696.523Q359.419 696.418 360.117 696.279Q360.815 696.14 361.506 695.967Q362.196 695.794 362.877 695.588Q363.559 695.381 364.229 695.141Q364.899 694.901 365.557 694.629Q366.215 694.357 366.858 694.052Q367.502 693.748 368.13 693.412Q368.757 693.077 369.368 692.711Q369.979 692.345 370.57 691.949Q371.162 691.554 371.734 691.13Q372.306 690.706 372.856 690.254Q373.407 689.802 373.934 689.324Q374.462 688.846 374.965 688.343L474.668 588.639Q475.172 588.136 475.65 587.609Q476.128 587.081 476.579 586.531Q477.031 585.98 477.455 585.409Q477.879 584.837 478.275 584.245Q478.67 583.653 479.036 583.042Q479.402 582.432 479.738 581.804Q480.073 581.176 480.378 580.532Q480.682 579.889 480.954 579.231Q481.227 578.574 481.467 577.903Q481.707 577.233 481.913 576.552Q482.12 575.871 482.293 575.18Q482.466 574.49 482.605 573.791Q482.744 573.093 482.848 572.389Q482.952 571.685 483.022 570.976Q483.092 570.268 483.127 569.557Q483.162 568.846 483.162 568.134Q483.162 567.422 483.127 566.711Q483.092 566 483.022 565.291Q482.952 564.583 482.848 563.879Q482.744 563.175 482.605 562.476Q482.466 561.778 482.293 561.088Q482.12 560.397 481.913 559.716Q481.707 559.035 481.467 558.364Q481.227 557.694 480.954 557.036Q480.682 556.379 480.378 555.735Q480.073 555.092 479.738 554.464Q479.402 553.836 479.036 553.225Q478.67 552.615 478.275 552.023Q477.879 551.431 477.455 550.859Q477.031 550.287 476.579 549.737Q476.128 549.187 475.65 548.659Q475.172 548.132 474.668 547.629Z" id="Rectangle-5" fill="#FFFFFF" fill-rule="evenodd" stroke="none" />
    </g>
  </g>
</svg>