<?xml version="1.0" encoding="utf-8"?>
<svg width="1000px" height="1000px" viewBox="0 0 1000 1000" version="1.1" xmlns:xlink="http://www.w3.org/1999/xlink" xmlns="http://www.w3.org/2000/svg">
  <defs>
    <rect width="1000" height="1000" id="artboard_1" />
    <clipPath id="clip_1">
      <use xlink:href="#artboard_1" clip-rule="evenodd" />
    </clipPath>
  </defs>
  <g id="Artboard-5" clip-path="url(#clip_1)">
    
    <g id="Group" transform="matrix(-1 0 0 1 954.999 151.0931)" artboard="3c4a1060-0aad-499b-9aaa-682f66dc8db9">
      <path d="M440.894 537.387L747.78 230.502Q748.283 229.998 748.811 229.52Q749.338 229.042 749.889 228.59Q750.439 228.139 751.011 227.715Q751.583 227.291 752.174 226.895Q752.766 226.5 753.377 226.134Q753.987 225.768 754.615 225.432Q755.243 225.097 755.887 224.792Q756.53 224.488 757.188 224.215Q757.846 223.943 758.516 223.703Q759.186 223.463 759.867 223.257Q760.549 223.05 761.239 222.877Q761.93 222.704 762.628 222.565Q763.326 222.426 764.03 222.322Q764.734 222.217 765.443 222.148Q766.151 222.078 766.862 222.043Q767.573 222.008 768.285 222.008Q768.997 222.008 769.708 222.043Q770.419 222.078 771.128 222.148Q771.836 222.217 772.54 222.322Q773.245 222.426 773.943 222.565Q774.641 222.704 775.331 222.877Q776.022 223.05 776.703 223.257Q777.385 223.463 778.055 223.703Q778.725 223.943 779.383 224.215Q780.04 224.488 780.684 224.792Q781.328 225.097 781.955 225.432Q782.583 225.768 783.194 226.134Q783.804 226.5 784.396 226.895Q784.988 227.291 785.56 227.715Q786.132 228.139 786.682 228.59Q787.232 229.042 787.76 229.52Q788.287 229.998 788.791 230.502L888.494 330.205Q888.998 330.708 889.476 331.236Q889.954 331.763 890.405 332.314Q890.857 332.864 891.281 333.436Q891.705 334.008 892.101 334.599Q892.496 335.191 892.862 335.802Q893.228 336.413 893.564 337.04Q893.899 337.668 894.204 338.312Q894.508 338.955 894.78 339.613Q895.053 340.271 895.293 340.941Q895.532 341.611 895.739 342.293Q895.946 342.974 896.119 343.664Q896.292 344.355 896.43 345.053Q896.569 345.751 896.674 346.455Q896.778 347.16 896.848 347.868Q896.918 348.577 896.953 349.288Q896.988 349.999 896.988 350.711Q896.988 351.422 896.953 352.133Q896.918 352.844 896.848 353.553Q896.778 354.261 896.674 354.966Q896.569 355.67 896.43 356.368Q896.292 357.066 896.119 357.757Q895.946 358.447 895.739 359.128Q895.532 359.81 895.292 360.48Q895.053 361.15 894.78 361.808Q894.508 362.466 894.203 363.109Q893.899 363.753 893.564 364.381Q893.228 365.008 892.862 365.619Q892.496 366.23 892.101 366.821Q891.705 367.413 891.281 367.985Q890.857 368.557 890.405 369.107Q889.954 369.658 889.476 370.185Q888.998 370.713 888.494 371.216L581.608 678.102Q581.105 678.605 580.577 679.083Q580.05 679.561 579.5 680.013Q578.949 680.464 578.378 680.888Q577.806 681.312 577.214 681.708Q576.622 682.103 576.011 682.469Q575.401 682.835 574.773 683.171Q574.145 683.506 573.501 683.811Q572.858 684.115 572.2 684.388Q571.542 684.66 570.872 684.9Q570.202 685.14 569.521 685.346Q568.84 685.553 568.149 685.726Q567.458 685.899 566.76 686.038Q566.062 686.177 565.358 686.281Q564.654 686.386 563.945 686.455Q563.237 686.525 562.526 686.56Q561.815 686.595 561.103 686.595Q560.391 686.595 559.68 686.56Q558.969 686.525 558.26 686.455Q557.552 686.386 556.848 686.281Q556.144 686.177 555.445 686.038Q554.747 685.899 554.057 685.726Q553.366 685.553 552.685 685.346Q552.004 685.14 551.333 684.9Q550.663 684.66 550.005 684.388Q549.348 684.115 548.704 683.811Q548.061 683.506 547.433 683.171Q546.805 682.835 546.194 682.469Q545.584 682.103 544.992 681.708Q544.4 681.312 543.828 680.888Q543.256 680.464 542.706 680.013Q542.156 679.561 541.628 679.083Q541.101 678.605 540.597 678.101L440.894 578.398Q440.391 577.895 439.913 577.367Q439.435 576.84 438.983 576.289Q438.531 575.739 438.107 575.167Q437.683 574.595 437.288 574.003Q436.892 573.412 436.526 572.801Q436.16 572.19 435.825 571.563Q435.489 570.935 435.185 570.291Q434.88 569.648 434.608 568.99Q434.335 568.332 434.096 567.662Q433.856 566.992 433.649 566.31Q433.442 565.629 433.269 564.939Q433.096 564.248 432.958 563.55Q432.819 562.852 432.714 562.148Q432.61 561.443 432.54 560.735Q432.47 560.026 432.435 559.315Q432.4 558.604 432.4 557.892Q432.4 557.181 432.435 556.47Q432.47 555.758 432.54 555.05Q432.61 554.342 432.714 553.637Q432.819 552.933 432.958 552.235Q433.096 551.537 433.269 550.846Q433.442 550.156 433.649 549.475Q433.856 548.793 434.096 548.123Q434.335 547.453 434.608 546.795Q434.88 546.137 435.185 545.494Q435.489 544.85 435.825 544.222Q436.16 543.595 436.526 542.984Q436.892 542.373 437.288 541.781Q437.683 541.19 438.107 540.618Q438.531 540.046 438.983 539.496Q439.435 538.945 439.913 538.418Q440.391 537.89 440.894 537.387Z" id="Rectangle-2" fill="#FFFFFF" fill-rule="evenodd" stroke="none" />
      <path d="M161.22 20.5054L678.117 537.401Q678.62 537.905 679.098 538.432Q679.576 538.96 680.028 539.51Q680.479 540.06 680.903 540.632Q681.327 541.204 681.723 541.796Q682.118 542.388 682.484 542.998Q682.85 543.609 683.186 544.237Q683.522 544.865 683.826 545.508Q684.13 546.152 684.403 546.809Q684.675 547.467 684.915 548.137Q685.155 548.808 685.362 549.489Q685.568 550.17 685.741 550.861Q685.914 551.551 686.053 552.249Q686.192 552.948 686.296 553.652Q686.401 554.356 686.471 555.064Q686.54 555.773 686.575 556.484Q686.61 557.195 686.61 557.907Q686.61 558.619 686.575 559.33Q686.54 560.041 686.471 560.749Q686.401 561.458 686.296 562.162Q686.192 562.866 686.053 563.564Q685.914 564.262 685.741 564.953Q685.568 565.644 685.361 566.325Q685.155 567.006 684.915 567.676Q684.675 568.347 684.403 569.004Q684.13 569.662 683.826 570.305Q683.522 570.949 683.186 571.577Q682.85 572.205 682.484 572.815Q682.118 573.426 681.723 574.018Q681.327 574.61 680.903 575.182Q680.479 575.753 680.028 576.304Q679.576 576.854 679.098 577.381Q678.62 577.909 678.117 578.412L578.413 678.116Q577.91 678.619 577.382 679.097Q576.855 679.575 576.305 680.027Q575.754 680.479 575.182 680.903Q574.611 681.327 574.019 681.722Q573.427 682.118 572.816 682.484Q572.206 682.85 571.578 683.185Q570.95 683.521 570.306 683.825Q569.663 684.13 569.005 684.402Q568.347 684.674 567.677 684.914Q567.007 685.154 566.326 685.361Q565.644 685.567 564.954 685.74Q564.263 685.913 563.565 686.052Q562.867 686.191 562.163 686.296Q561.458 686.4 560.75 686.47Q560.042 686.54 559.331 686.574Q558.62 686.609 557.908 686.609Q557.196 686.609 556.485 686.574Q555.774 686.54 555.065 686.47Q554.357 686.4 553.653 686.296Q552.948 686.191 552.25 686.052Q551.552 685.913 550.862 685.74Q550.171 685.567 549.49 685.361Q548.809 685.154 548.138 684.914Q547.468 684.674 546.81 684.402Q546.153 684.13 545.509 683.825Q544.865 683.521 544.238 683.185Q543.61 682.85 542.999 682.484Q542.389 682.118 541.797 681.722Q541.205 681.327 540.633 680.903Q540.061 680.479 539.511 680.027Q538.961 679.575 538.433 679.097Q537.906 678.619 537.402 678.116L20.5056 161.22Q20.0022 160.716 19.5241 160.189Q19.0461 159.661 18.5945 159.111Q18.1428 158.561 17.7188 157.989Q17.2947 157.417 16.8992 156.825Q16.5037 156.233 16.1377 155.623Q15.7717 155.012 15.4362 154.384Q15.1006 153.757 14.7962 153.113Q14.4918 152.469 14.2194 151.812Q13.947 151.154 13.7071 150.484Q13.4673 149.814 13.2607 149.132Q13.054 148.451 12.881 147.761Q12.7081 147.07 12.5692 146.372Q12.4303 145.674 12.3258 144.969Q12.2214 144.265 12.1516 143.557Q12.0818 142.848 12.0469 142.137Q12.012 141.426 12.012 140.714Q12.012 140.002 12.0469 139.291Q12.0818 138.58 12.1516 137.872Q12.2214 137.163 12.3258 136.459Q12.4303 135.755 12.5692 135.057Q12.7081 134.359 12.881 133.668Q13.054 132.978 13.2607 132.296Q13.4673 131.615 13.7071 130.945Q13.947 130.275 14.2194 129.617Q14.4918 128.959 14.7962 128.316Q15.1005 127.672 15.4361 127.044Q15.7717 126.416 16.1377 125.806Q16.5037 125.195 16.8992 124.603Q17.2947 124.011 17.7187 123.44Q18.1428 122.868 18.5944 122.318Q19.046 121.767 19.5241 121.24Q20.0022 120.712 20.5056 120.209L120.209 20.5054Q120.712 20.002 121.24 19.524Q121.767 19.0459 122.318 18.5943Q122.868 18.1426 123.44 17.7186Q124.011 17.2945 124.603 16.899Q125.195 16.5035 125.806 16.1375Q126.416 15.7715 127.044 15.436Q127.672 15.1004 128.316 14.796Q128.959 14.4916 129.617 14.2192Q130.275 13.9468 130.945 13.7069Q131.615 13.4671 132.296 13.2605Q132.978 13.0538 133.668 12.8808Q134.359 12.7079 135.057 12.569Q135.755 12.4301 136.459 12.3257Q137.163 12.2212 137.872 12.1514Q138.58 12.0816 139.291 12.0467Q140.002 12.0118 140.714 12.0118Q141.426 12.0118 142.137 12.0467Q142.848 12.0816 143.557 12.1514Q144.265 12.2212 144.969 12.3256Q145.674 12.4301 146.372 12.569Q147.07 12.7079 147.761 12.8808Q148.451 13.0538 149.132 13.2605Q149.814 13.4671 150.484 13.7069Q151.154 13.9468 151.812 14.2192Q152.469 14.4916 153.113 14.796Q153.757 15.1004 154.384 15.4359Q155.012 15.7715 155.623 16.1375Q156.233 16.5035 156.825 16.899Q157.417 17.2945 157.989 17.7186Q158.561 18.1426 159.111 18.5942Q159.661 19.0459 160.189 19.5239Q160.716 20.002 161.22 20.5054Z" id="Rectangle-3" fill="#FFFFFF" fill-rule="evenodd" stroke="none" />
    </g>
  </g>
</svg>