<?xml version="1.0" encoding="utf-8"?>
<svg width="1000px" height="1000px" viewBox="0 0 1000 1000" version="1.1" xmlns:xlink="http://www.w3.org/1999/xlink" xmlns="http://www.w3.org/2000/svg">
  <defs>
    <rect width="1000" height="1000" id="artboard_1" />
    <clipPath id="clip_1">
      <use xlink:href="#artboard_1" clip-rule="evenodd" />
    </clipPath>
  </defs>
  <g id="Artboard-4" clip-path="url(#clip_1)">
    
    <g id="Group" transform="translate(151 151)" artboard="21cd2541-d5d7-4539-8a35-e8a2b5368ce7">
      <path d="M20.8374 537.402L537.734 20.5054Q538.238 20.0021 538.765 19.524Q539.293 19.0459 539.843 18.5943Q540.393 18.1427 540.965 17.7186Q541.537 17.2945 542.129 16.899Q542.721 16.5035 543.331 16.1375Q543.942 15.7716 544.57 15.436Q545.197 15.1004 545.841 14.796Q546.484 14.4917 547.142 14.2192Q547.8 13.9468 548.47 13.707Q549.14 13.4671 549.822 13.2605Q550.503 13.0538 551.193 12.8809Q551.884 12.7079 552.582 12.569Q553.28 12.4301 553.985 12.3257Q554.689 12.2212 555.397 12.1514Q556.106 12.0817 556.817 12.0467Q557.528 12.0118 558.24 12.0118Q558.951 12.0118 559.663 12.0467Q560.374 12.0817 561.082 12.1514Q561.79 12.2212 562.495 12.3257Q563.199 12.4301 563.897 12.569Q564.595 12.7079 565.286 12.8809Q565.976 13.0538 566.658 13.2605Q567.339 13.4671 568.009 13.707Q568.679 13.9468 569.337 14.2192Q569.995 14.4917 570.638 14.796Q571.282 15.1004 571.91 15.436Q572.537 15.7716 573.148 16.1375Q573.759 16.5035 574.351 16.899Q574.943 17.2945 575.514 17.7186Q576.086 18.1427 576.636 18.5943Q577.187 19.0459 577.714 19.524Q578.242 20.0021 578.745 20.5054L678.448 120.209Q678.952 120.712 679.43 121.24Q679.908 121.767 680.36 122.318Q680.811 122.868 681.235 123.44Q681.659 124.011 682.055 124.603Q682.45 125.195 682.816 125.806Q683.182 126.416 683.518 127.044Q683.853 127.672 684.158 128.316Q684.462 128.959 684.734 129.617Q685.007 130.275 685.247 130.945Q685.487 131.615 685.693 132.296Q685.9 132.978 686.073 133.668Q686.246 134.359 686.385 135.057Q686.524 135.755 686.628 136.459Q686.732 137.163 686.802 137.872Q686.872 138.58 686.907 139.291Q686.942 140.002 686.942 140.714Q686.942 141.426 686.907 142.137Q686.872 142.848 686.802 143.557Q686.732 144.265 686.628 144.969Q686.523 145.674 686.385 146.372Q686.246 147.07 686.073 147.761Q685.9 148.451 685.693 149.132Q685.487 149.814 685.247 150.484Q685.007 151.154 684.734 151.812Q684.462 152.469 684.158 153.113Q683.853 153.757 683.518 154.384Q683.182 155.012 682.816 155.623Q682.45 156.233 682.055 156.825Q681.659 157.417 681.235 157.989Q680.811 158.561 680.36 159.111Q679.908 159.661 679.43 160.189Q678.952 160.716 678.448 161.22L161.552 678.116Q161.048 678.619 160.521 679.097Q159.993 679.575 159.443 680.027Q158.893 680.479 158.321 680.903Q157.749 681.327 157.157 681.722Q156.565 682.118 155.955 682.484Q155.344 682.85 154.716 683.185Q154.088 683.521 153.445 683.825Q152.801 684.13 152.144 684.402Q151.486 684.674 150.816 684.914Q150.145 685.154 149.464 685.361Q148.783 685.567 148.092 685.74Q147.402 685.913 146.704 686.052Q146.005 686.191 145.301 686.296Q144.597 686.4 143.889 686.47Q143.18 686.54 142.469 686.574Q141.758 686.609 141.046 686.609Q140.334 686.609 139.623 686.574Q138.912 686.54 138.204 686.47Q137.495 686.4 136.791 686.296Q136.087 686.191 135.389 686.052Q134.691 685.913 134 685.74Q133.309 685.567 132.628 685.361Q131.947 685.154 131.277 684.914Q130.606 684.674 129.949 684.402Q129.291 684.13 128.648 683.825Q128.004 683.521 127.376 683.185Q126.748 682.85 126.138 682.484Q125.527 682.118 124.935 681.722Q124.343 681.327 123.772 680.903Q123.2 680.479 122.649 680.027Q122.099 679.575 121.572 679.097Q121.044 678.619 120.541 678.116L20.8374 578.412Q20.334 577.909 19.856 577.381Q19.3779 576.854 18.9263 576.304Q18.4747 575.753 18.0506 575.182Q17.6265 574.61 17.231 574.018Q16.8355 573.426 16.4695 572.815Q16.1035 572.205 15.768 571.577Q15.4324 570.949 15.128 570.306Q14.8236 569.662 14.5512 569.004Q14.2788 568.347 14.039 567.676Q13.7991 567.006 13.5925 566.325Q13.3858 565.644 13.2129 564.953Q13.0399 564.263 12.901 563.564Q12.7621 562.866 12.6577 562.162Q12.5532 561.458 12.4834 560.749Q12.4137 560.041 12.3787 559.33Q12.3438 558.619 12.3438 557.907Q12.3438 557.195 12.3787 556.484Q12.4137 555.773 12.4834 555.065Q12.5532 554.356 12.6577 553.652Q12.7621 552.948 12.901 552.25Q13.0399 551.551 13.2129 550.861Q13.3859 550.17 13.5925 549.489Q13.7992 548.808 14.039 548.137Q14.2788 547.467 14.5512 546.809Q14.8237 546.152 15.128 545.508Q15.4324 544.865 15.768 544.237Q16.1036 543.609 16.4695 542.998Q16.8355 542.388 17.231 541.796Q17.6265 541.204 18.0506 540.632Q18.4747 540.06 18.9263 539.51Q19.3779 538.96 19.856 538.432Q20.3341 537.905 20.8374 537.402Z" id="Rectangle-2" fill="#FFFFFF" fill-rule="evenodd" stroke="none" />
      <path d="M161.22 20.5985L678.117 537.495Q678.62 537.998 679.098 538.525Q679.576 539.053 680.028 539.603Q680.479 540.153 680.903 540.725Q681.327 541.297 681.723 541.889Q682.118 542.481 682.484 543.091Q682.85 543.702 683.186 544.33Q683.522 544.958 683.826 545.601Q684.13 546.245 684.403 546.902Q684.675 547.56 684.915 548.23Q685.155 548.901 685.362 549.582Q685.568 550.263 685.741 550.954Q685.914 551.644 686.053 552.342Q686.192 553.041 686.296 553.745Q686.401 554.449 686.471 555.158Q686.54 555.866 686.575 556.577Q686.61 557.288 686.61 558Q686.61 558.712 686.575 559.423Q686.54 560.134 686.471 560.842Q686.401 561.551 686.296 562.255Q686.192 562.959 686.053 563.657Q685.914 564.356 685.741 565.046Q685.568 565.737 685.361 566.418Q685.155 567.099 684.915 567.769Q684.675 568.44 684.403 569.097Q684.13 569.755 683.826 570.399Q683.522 571.042 683.186 571.67Q682.85 572.298 682.484 572.908Q682.118 573.519 681.723 574.111Q681.327 574.703 680.903 575.275Q680.479 575.846 680.028 576.397Q679.576 576.947 679.098 577.475Q678.62 578.002 678.117 578.505L578.413 678.209Q577.91 678.712 577.382 679.19Q576.855 679.668 576.305 680.12Q575.754 680.572 575.182 680.996Q574.611 681.42 574.019 681.815Q573.427 682.211 572.816 682.577Q572.206 682.943 571.578 683.278Q570.95 683.614 570.306 683.918Q569.663 684.223 569.005 684.495Q568.347 684.767 567.677 685.007Q567.007 685.247 566.326 685.454Q565.644 685.66 564.954 685.833Q564.263 686.006 563.565 686.145Q562.867 686.284 562.163 686.389Q561.458 686.493 560.75 686.563Q560.042 686.633 559.331 686.667Q558.62 686.702 557.908 686.702Q557.196 686.702 556.485 686.668Q555.774 686.633 555.065 686.563Q554.357 686.493 553.653 686.389Q552.948 686.284 552.25 686.145Q551.552 686.006 550.862 685.833Q550.171 685.66 549.49 685.454Q548.809 685.247 548.138 685.007Q547.468 684.767 546.81 684.495Q546.153 684.223 545.509 683.918Q544.865 683.614 544.238 683.278Q543.61 682.943 542.999 682.577Q542.389 682.211 541.797 681.815Q541.205 681.42 540.633 680.996Q540.061 680.572 539.511 680.12Q538.961 679.668 538.433 679.19Q537.906 678.712 537.402 678.209L20.5056 161.313Q20.0022 160.809 19.5241 160.282Q19.0461 159.754 18.5945 159.204Q18.1428 158.654 17.7188 158.082Q17.2947 157.51 16.8992 156.918Q16.5037 156.326 16.1377 155.716Q15.7717 155.105 15.4362 154.477Q15.1006 153.85 14.7962 153.206Q14.4918 152.563 14.2194 151.905Q13.947 151.247 13.7071 150.577Q13.4673 149.907 13.2607 149.225Q13.054 148.544 12.881 147.854Q12.7081 147.163 12.5692 146.465Q12.4303 145.767 12.3258 145.062Q12.2214 144.358 12.1516 143.65Q12.0818 142.941 12.0469 142.23Q12.012 141.519 12.012 140.807Q12.012 140.096 12.0469 139.385Q12.0818 138.673 12.1516 137.965Q12.2214 137.257 12.3258 136.552Q12.4303 135.848 12.5692 135.15Q12.7081 134.452 12.881 133.761Q13.054 133.071 13.2607 132.389Q13.4673 131.708 13.7071 131.038Q13.947 130.368 14.2194 129.71Q14.4918 129.052 14.7962 128.409Q15.1005 127.765 15.4361 127.137Q15.7717 126.51 16.1377 125.899Q16.5037 125.288 16.8992 124.696Q17.2947 124.105 17.7187 123.533Q18.1428 122.961 18.5944 122.411Q19.046 121.86 19.5241 121.333Q20.0022 120.805 20.5056 120.302L120.209 20.5985Q120.712 20.0951 121.24 19.617Q121.767 19.139 122.318 18.6874Q122.868 18.2357 123.44 17.8117Q124.011 17.3876 124.603 16.9921Q125.195 16.5966 125.806 16.2306Q126.416 15.8646 127.044 15.529Q127.672 15.1935 128.316 14.8891Q128.959 14.5847 129.617 14.3123Q130.275 14.0399 130.945 13.8Q131.615 13.5602 132.296 13.3536Q132.978 13.1469 133.668 12.9739Q134.359 12.801 135.057 12.6621Q135.755 12.5232 136.459 12.4187Q137.163 12.3143 137.872 12.2445Q138.58 12.1747 139.291 12.1398Q140.002 12.1049 140.714 12.1049Q141.426 12.1049 142.137 12.1398Q142.848 12.1747 143.557 12.2445Q144.265 12.3143 144.969 12.4187Q145.674 12.5232 146.372 12.6621Q147.07 12.801 147.761 12.9739Q148.451 13.1469 149.132 13.3536Q149.814 13.5602 150.484 13.8Q151.154 14.0399 151.812 14.3123Q152.469 14.5847 153.113 14.8891Q153.757 15.1934 154.384 15.529Q155.012 15.8646 155.623 16.2306Q156.233 16.5966 156.825 16.9921Q157.417 17.3876 157.989 17.8116Q158.561 18.2357 159.111 18.6873Q159.661 19.1389 160.189 19.617Q160.716 20.0951 161.22 20.5985Z" id="Rectangle-3" fill="#FFFFFF" fill-rule="evenodd" stroke="none" />
    </g>
  </g>
</svg>